<?xml version="1.0"?>
<svg width="480" height="480" xmlns="http://www.w3.org/2000/svg">
 <!-- Created with Method Draw - http://github.com/duopixel/Method-Draw/ -->
 <g>
  <title>background</title>
  <rect fill="none" id="canvas_background" height="482" width="482" y="-1" x="-1"/>
  <g display="none" overflow="visible" y="0" x="0" height="100%" width="100%" id="canvasGrid">
   <rect fill="url(#gridpattern)" stroke-width="0" y="0" x="0" height="100%" width="100%"/>
  </g>
 </g>
 <g>
  <title>Layer 1</title>
  <text stroke="#000" transform="matrix(12.466042518615723,0,0,2.222222328186035,-1874.6979517936707,-165.61112546920776) " xml:space="preserve" text-anchor="left" font-family="Helvetica, Arial, sans-serif" font-size="24" id="svg_1" y="157.5" x="163.5" stroke-width="0" fill="#000000"/>
  <text stroke="#000000" transform="matrix(9.693208694458008,0,0,2.8888888359069824,-1682.1358823776245,-237.0555489063263) " xml:space="preserve" text-anchor="left" font-family="Helvetica, Arial, sans-serif" font-size="24" id="svg_2" y="147.5" x="193.5" stroke-width="0" fill="#000000"/>
  <path id="svg_5" d="m286.5,241.5" opacity="0.5" stroke-width="0" stroke="#000000" fill="#000000"/>
  <path stroke="#000000" id="svg_7" d="m242.350723,1.001256c65.313828,0 118.300034,53.563746 118.300034,119.525699c0,65.962059 -52.986206,119.474266 -118.300034,119.474266c-65.313614,0 -118.299835,53.563751 -118.299835,119.525665c0,65.962219 52.986221,119.474335 118.299835,119.474335c130.627304,0 236.650711,-107.075867 236.650711,-239c0,-131.924072 -106.023407,-238.999965 -236.650711,-238.999965zm0,82.173953c-20.421188,0 -36.984787,16.727982 -36.984787,37.351746c0,20.62394 16.563599,37.351814 36.984787,37.351814c20.421188,0 36.984421,-16.727875 36.984421,-37.351814c0,-20.623764 -16.563232,-37.351746 -36.984421,-37.351746zm0,239.000023c20.410568,0 36.984421,16.738556 36.984421,37.351654c0,20.61319 -16.57373,37.35199 -36.984421,37.35199c-20.410416,0 -36.984787,-16.7388 -36.984787,-37.35199c0,-20.612915 16.574371,-37.351654 36.984787,-37.351654zm231.342789,-82.02179c0,131.826111 -105.815704,238.692352 -236.346008,238.692352c-130.530342,0 -236.346071,-106.866241 -236.346071,-238.692352c0,-131.826027 105.815729,-238.692216 236.346071,-238.692216c130.530304,0 236.346008,106.866189 236.346008,238.692216z" fill-opacity="null" stroke-opacity="null" stroke-width="0" fill="#000000"/>
 </g>
</svg>